<?xml version="1.0" encoding="UTF-8" standalone="no"?>
<svg
   xmlns:dc="http://purl.org/dc/elements/1.1/"
   xmlns:cc="http://creativecommons.org/ns#"
   xmlns:rdf="http://www.w3.org/1999/02/22-rdf-syntax-ns#"
   xmlns:svg="http://www.w3.org/2000/svg"
   xmlns="http://www.w3.org/2000/svg"
   xmlns:sodipodi="http://sodipodi.sourceforge.net/DTD/sodipodi-0.dtd"
   xmlns:inkscape="http://www.inkscape.org/namespaces/inkscape"
   enable-background="new 0 0 30 30"
   height="30px"
   id="Capa_1"
   version="1.1"
   viewBox="0 0 30 30"
   width="30px"
   xml:space="preserve"
   inkscape:version="0.91 r13725"
   sodipodi:docname="currentLoc.svg"
   inkscape:export-filename="C:\_anecdotea\www\img\currentLoc.png"
   inkscape:export-xdpi="192"
   inkscape:export-ydpi="192"><metadata
     id="metadata9"><rdf:RDF><cc:Work
         rdf:about=""><dc:format>image/svg+xml</dc:format><dc:type
           rdf:resource="http://purl.org/dc/dcmitype/StillImage" /><dc:title></dc:title></cc:Work></rdf:RDF></metadata><defs
     id="defs7" /><sodipodi:namedview
     pagecolor="#ffffff"
     bordercolor="#666666"
     borderopacity="1"
     objecttolerance="10"
     gridtolerance="10"
     guidetolerance="10"
     inkscape:pageopacity="0"
     inkscape:pageshadow="2"
     inkscape:window-width="756"
     inkscape:window-height="480"
     id="namedview5"
     showgrid="false"
     inkscape:zoom="5.5625733"
     inkscape:cx="23.436459"
     inkscape:cy="18.746313"
     inkscape:window-x="675"
     inkscape:window-y="127"
     inkscape:window-maximized="0"
     inkscape:current-layer="Capa_1" /><path
     class="st0"
     d="m 14.900406,0.31380196 c -5.424756,0 -9.82746,4.60711284 -9.82746,10.29131704 0,5.684203 8.278653,17.893843 9.82746,17.893843 1.548808,0 9.827467,-12.20964 9.827467,-17.893843 0,-5.6842042 -4.402703,-10.29131704 -9.827467,-10.29131704 z"
     id="path5"
     inkscape:connector-curvature="0"
     style="fill:#ffffff"
     sodipodi:nodetypes="sssss" /><path
     d="m 15.1,0.3 c -6,0 -10,4 -10,9.8 0,7.8 7.2,17.5 9.1,19.4 0.1,0.1 0.3,0.2 0.5,0.2 l 0,0 c 0.2,0 0.4,-0.1 0.5,-0.3 1,-1.1 9.6,-11.1 9.6,-19.3 C 24.9,3.3 20,0.3 15.1,0.3 Z M 14.7,27.8 C 12.4,25.1 6.6,16.7 6.6,10.1 6.6,5 9.9,1.8 15.1,1.8 c 3.8,0 8.3,2.2 8.3,8.3 0,5.9 -5.2,13.7 -8.7,17.7 z"
     id="path3"
     inkscape:connector-curvature="0"
     style="fill:#0044aa"
     sodipodi:nodetypes="sssccccscsssc" /><g
     transform="matrix(0.43713488,0,0,0.43713488,4.5087629,-0.89790885)"
     id="g3"
     style="fill:#0044aa"><g
       id="g5"
       style="fill:#0044aa"><circle
         style="fill:#0044aa"
         cx="24"
         cy="18.796"
         r="5.0840001"
         id="circle7" /><path
         style="fill:#0044aa"
         inkscape:connector-curvature="0"
         d="m 30.943,25.688 -13.887,0 c -0.904,0 -1.638,0.733 -1.638,1.638 l 0,10.337 c 2.501,1.554 5.443,2.467 8.605,2.467 3.142,0 6.066,-0.902 8.559,-2.439 l 0,-10.365 c 0,-0.904 -0.734,-1.638 -1.639,-1.638 z"
         id="path9" /></g></g></svg>