<?xml version="1.0" encoding="UTF-8" standalone="no"?>
<svg
   xmlns:dc="http://purl.org/dc/elements/1.1/"
   xmlns:cc="http://creativecommons.org/ns#"
   xmlns:rdf="http://www.w3.org/1999/02/22-rdf-syntax-ns#"
   xmlns:svg="http://www.w3.org/2000/svg"
   xmlns="http://www.w3.org/2000/svg"
   xmlns:sodipodi="http://sodipodi.sourceforge.net/DTD/sodipodi-0.dtd"
   xmlns:inkscape="http://www.inkscape.org/namespaces/inkscape"
   enable-background="new 0 0 64 64"
   height="256"
   id="Layer_1"
   version="1.1"
   viewBox="0 0 256 256"
   width="256"
   xml:space="preserve"
   inkscape:version="0.91 r13725"
   sodipodi:docname="intro_trouver.svg"
   inkscape:export-filename="D:\_anecdote\anecdotea\www\img\intro_trouver.png"
   inkscape:export-xdpi="90"
   inkscape:export-ydpi="90"><metadata
     id="metadata15"><rdf:RDF><cc:Work
         rdf:about=""><dc:format>image/svg+xml</dc:format><dc:type
           rdf:resource="http://purl.org/dc/dcmitype/StillImage" /><dc:title /></cc:Work></rdf:RDF></metadata><defs
     id="defs13" /><sodipodi:namedview
     pagecolor="#ffffff"
     bordercolor="#666666"
     borderopacity="1"
     objecttolerance="10"
     gridtolerance="10"
     guidetolerance="10"
     inkscape:pageopacity="0"
     inkscape:pageshadow="2"
     inkscape:window-width="1920"
     inkscape:window-height="1018"
     id="namedview11"
     showgrid="false"
     inkscape:zoom="0.65186405"
     inkscape:cx="369.24673"
     inkscape:cy="49.436698"
     inkscape:window-x="-8"
     inkscape:window-y="-8"
     inkscape:window-maximized="1"
     inkscape:current-layer="Layer_1" /><g
     id="g3"
     style="fill:#ffffff"
     transform="matrix(3.0759798,0,0,3.0759798,30.990081,70.989676)"
     inkscape:export-xdpi="90"
     inkscape:export-ydpi="90"><path
       d="m 44.525,20.734 c 0,-6.919 -5.608,-12.527 -12.528,-12.527 -6.92,0 -12.527,5.608 -12.527,12.527 0,9.913 12.527,24.581 12.527,24.581 0,0 12.528,-14.719 12.528,-24.581 z M 25.819,19.986 c 0,-3.413 2.767,-6.179 6.179,-6.179 3.412,0 6.179,2.766 6.179,6.179 0,3.413 -2.767,6.179 -6.179,6.179 -3.412,0 -6.179,-2.766 -6.179,-6.179 z"
       id="path5"
       style="fill:#ffffff"
       inkscape:connector-curvature="0" /><circle
       cx="31.997"
       cy="19.986"
       r="3.0380001"
       id="circle7"
       style="fill:#ffffff" /><path
       d="m 39.08,40.958 c -1.021,1.475 -1.979,2.761 -2.777,3.793 7.916,0.475 13.104,2.184 15.034,3.456 -2.261,1.491 -8.98,3.587 -19.338,3.587 -10.358,0 -17.077,-2.097 -19.338,-3.587 1.93,-1.271 7.114,-2.979 15.022,-3.455 -0.8,-1.032 -1.759,-2.317 -2.781,-3.792 -9.741,0.959 -16.816,3.841 -16.816,7.246 0,4.19 10.707,7.588 23.913,7.588 13.207,0 23.912,-3.397 23.912,-7.588 0.002,-3.407 -7.081,-6.29 -16.831,-7.248 z"
       id="path9"
       style="fill:#ffffff"
       inkscape:connector-curvature="0" /></g></svg>